<svg id="图层_1" data-name="图层 1" xmlns="http://www.w3.org/2000/svg" viewBox="0 0 28.1 28.1"><defs><style>.cls-1{fill:#20ae93;}</style></defs><title>baobiao1</title><path class="cls-1" d="M10.9,3c-.2.1-.3.1-.5.2a14,14,0,0,0,5.5,26.9,14.19,14.19,0,0,0,13-8.7.35.35,0,0,1,.1-.2,1,1,0,0,0-1.9-.7c0,.1-.1.1-.1.2a11.88,11.88,0,0,1-11.1,7.4,12,12,0,0,1-4.8-23c.1-.1.2-.1.4-.2a1,1,0,0,0,.6-1.3A.84.84,0,0,0,10.9,3ZM17,15H28A12.08,12.08,0,0,0,17,4ZM16,2A14,14,0,0,1,30,16a.94.94,0,0,1-1,1H16a.94.94,0,0,1-1-1V3A.94.94,0,0,1,16,2Z" transform="translate(-1.9 -2)"/></svg>